<?xml version="1.0" encoding="UTF-8"?>
<svg width="240px" height="96px" viewBox="0 0 240 96" version="1.1" xmlns="http://www.w3.org/2000/svg" xmlns:xlink="http://www.w3.org/1999/xlink">
    <!-- Generator: Sketch 51.3 (57544) - http://www.bohemiancoding.com/sketch -->
    <title>Illustration-Furniture-SVG-Desktop</title>
    <desc>Created with Sketch.</desc>
    <defs></defs>
    <g id="Listing-Experience-Assets" stroke="none" stroke-width="1" fill="none" fill-rule="evenodd" stroke-linecap="round" stroke-linejoin="round">
        <g id="Illustrations" transform="translate(-824.000000, -273.000000)" stroke="#2F3A4A" stroke-width="1.5">
            <g id="Illustration-Furniture-SVG-Desktop" transform="translate(825.000000, 274.000000)">
                <polygon id="Stroke-1" points="197.069818 94.1185455 237.909091 94.1185455 237.909091 30.1752727 197.069818 30.1752727"></polygon>
                <path d="M197.069382,52.4162909 L237.908655,52.4162909" id="Stroke-3"></path>
                <path d="M197.069382,74.6578909 L237.908655,74.6578909" id="Stroke-4"></path>
                <path d="M218.850618,37.1250909 C218.850618,37.8930909 218.241164,38.5156364 217.489164,38.5156364 C216.738618,38.5156364 216.127709,37.8930909 216.127709,37.1250909 C216.127709,36.3585455 216.738618,35.736 217.489164,35.736 C218.241164,35.736 218.850618,36.3585455 218.850618,37.1250909 Z" id="Stroke-5"></path>
                <path d="M218.850618,59.3666909 C218.850618,60.1346909 218.241164,60.7572364 217.489164,60.7572364 C216.738618,60.7572364 216.127709,60.1346909 216.127709,59.3666909 C216.127709,58.6001455 216.738618,57.9776 217.489164,57.9776 C218.241164,57.9776 218.850618,58.6001455 218.850618,59.3666909 Z" id="Stroke-6"></path>
                <path d="M218.850618,81.6081455 C218.850618,82.3746909 218.241164,82.9972364 217.489164,82.9972364 C216.738618,82.9972364 216.127709,82.3746909 216.127709,81.6081455 C216.127709,80.8401455 216.738618,80.2176 217.489164,80.2176 C218.241164,80.2176 218.850618,80.8401455 218.850618,81.6081455 Z" id="Stroke-7"></path>
                <polyline id="Stroke-8" points="0.0906181818 93.6535273 0.0906181818 48.8797091 50.9648 48.8797091 50.9648 93.6535273"></polyline>
                <path d="M0.0906181818,63.9688727 L50.9648,63.9688727" id="Stroke-9"></path>
                <path d="M175.797964,83.1649455 L68.0583273,83.1649455 C65.1928727,83.1649455 62.8685091,80.8405818 62.8685091,77.9765818 L62.8685091,62.1336727 C62.8685091,59.2682182 65.1928727,56.9453091 68.0583273,56.9453091 L175.797964,56.9453091 C178.664873,56.9453091 180.986327,59.2682182 180.986327,62.1336727 L180.986327,77.9765818 C180.986327,80.8405818 178.664873,83.1649455 175.797964,83.1649455 Z" id="Stroke-10"></path>
                <path d="M78.2753455,83.1649455 L73.1408,93.6536727" id="Stroke-11"></path>
                <path d="M165.580655,83.1649455 L170.716655,93.6536727" id="Stroke-12"></path>
                <path d="M170.717091,56.9447273 L73.1403636,56.9447273 L73.1403636,28.7032727 C73.1403636,25.8363636 75.4647273,23.5149091 78.3287273,23.5149091 L165.527273,23.5149091 C168.392727,23.5149091 170.717091,25.8363636 170.717091,28.7032727 L170.717091,56.9447273 Z" id="Stroke-13"></path>
                <path d="M114.2256,56.9447273 L83.4110545,56.9447273 L83.4110545,51.7010909 C83.4110545,48.8036364 85.7106909,46.456 88.5470545,46.456 L109.0896,46.456 C111.925964,46.456 114.2256,48.8036364 114.2256,51.7010909 L114.2256,56.9447273 Z" id="Stroke-14"></path>
                <path d="M160.445818,56.9447273 L129.631273,56.9447273 L129.631273,51.7010909 C129.631273,48.8036364 131.930909,46.456 134.767273,46.456 L155.309818,46.456 C158.146182,46.456 160.445818,48.8036364 160.445818,51.7010909 L160.445818,56.9447273 Z" id="Stroke-15"></path>
                <polyline id="Stroke-16" points="37.9272727 48 24.9629091 48 12 48"></polyline>
                <path d="M46.6054545,8.78545455 C41.6629091,3.73818182 33.6498182,3.73818182 28.7058182,8.78545455 C23.7647273,13.8327273 23.7647273,22.016 28.7058182,27.0618182 L46.6054545,8.78545455 Z" id="Stroke-17"></path>
                <polyline id="Stroke-18" points="32.2007273 5.28436364 27.0036364 0 20 7.12145455 25.2116364 12.4203636"></polyline>
                <path d="M40.8109091,15 L44.2901818,18.5301818 C45.2414545,19.5003636 45.7156364,20.7803636 45.7156364,21.9934545 C45.7156364,23.0523636 45.3490909,24.0676364 44.6130909,24.8181818 C43.016,26.4501818 40.2494545,26.296 38.4778182,24.4865455 L35,20.9345455" id="Stroke-19"></path>
                <polyline id="Stroke-20" points="23.6530909 11 9 25.3607273 25.1527273 47.5265455"></polyline>
            </g>
        </g>
    </g>
</svg>