<?xml version="1.0" encoding="UTF-8" standalone="no"?>
<svg width="833px" height="387px" viewBox="0 0 833 387" version="1.1" xmlns="http://www.w3.org/2000/svg" xmlns:xlink="http://www.w3.org/1999/xlink">
    <!-- Generator: Sketch 47.1 (45422) - http://www.bohemiancoding.com/sketch -->
    <title>Illustration-Wide</title>
    <desc>Created with Sketch.</desc>
    <defs></defs>
    <g id="Page-1" stroke="none" stroke-width="1" fill="none" fill-rule="evenodd">
        <g id="Landing-Page---Desktop" transform="translate(-303.000000, -162.000000)">
            <g id="Illustration-Wide" transform="translate(303.000000, 162.000000)">
                <path d="M50.157675,306 C29.6362343,306 13,289.43436 13,269 C13,248.56564 29.6362343,232 50.157675,232 L389,232 L389,306 L50.157675,306 Z" id="Fill-1" fill="#EF476F"></path>
                <path d="M733.136398,280 L102.863602,280 C78.1886208,280 58,259.75 58,235 L58,235 C58,210.25 78.1886208,190 102.863602,190 L733.136398,190 C757.811379,190 778,210.25 778,235 L778,235 C778,259.75 757.811379,280 733.136398,280" id="Fill-3" fill="#118AB2"></path>
                <path d="M740.842325,336 C761.363766,336 778,319.43436 778,299 C778,278.56564 761.363766,262 740.842325,262 L402,262 L402,336 L740.842325,336 Z" id="Fill-5" fill="#EF476F"></path>
                <path d="M651.108375,154 L143.891625,154 C119.201231,154 99,133.75 99,109 L99,109 C99,84.25 119.201231,64 143.891625,64 L651.108375,64 C675.798769,64 696,84.25 696,109 L696,109 C696,133.75 675.798769,154 651.108375,154" id="Fill-7" fill="#D7F7FB"></path>
                <path d="M543,139 L604,139 C604,121.879036 590.344249,108 573.499633,108 C556.655016,108 543,121.879036 543,139" id="Fill-9" fill="#EF476F"></path>
                <path d="M655.091636,360 L121.908364,360 C97.2087638,360 77,339.75 77,315 L77,315 C77,290.25 97.2087638,270 121.908364,270 L655.091636,270 C679.791236,270 700,290.25 700,315 L700,315 C700,339.75 679.791236,360 655.091636,360" id="Fill-11" fill="#EF476F"></path>
                <path d="M581.055329,90 L258.944671,90 C234.225102,90 214,69.75 214,45 L214,45 C214,20.25 234.225102,0 258.944671,0 L581.055329,0 C605.774898,0 626,20.25 626,45 L626,45 C626,69.75 605.774898,90 581.055329,90" id="Fill-13" fill="#D7F7FB"></path>
                <path d="M99.4683987,73 C101.601596,71.5589831 103,69.1558415 103,66.4322327 C103,62.0202036 99.3341934,58.4437038 94.8127354,58.4437038 C93.2793843,58.4437038 91.846131,58.856043 90.6190052,59.5707642 C89.1412641,51.2935979 81.7414361,45 72.8342083,45 C65.8659133,45 59.8207432,48.8528394 56.8111338,54.4924818 C54.8855474,52.3034672 52.0294214,50.915982 48.8411187,50.915982 C43.8755227,50.915982 39.7159,54.2790782 38.623721,58.7981708 C32.4769701,60.6052292 28,66.1703612 28,72.7569369 C28,72.8379579 28.0014829,72.918979 28.0029659,73 L99.4683987,73 Z" id="Fill-15" fill="#D7F7FB"></path>
                <path d="M252.479344,86 C255.210326,84.1469892 257,81.0566947 257,77.5554296 C257,71.8827244 252.307589,67.2848092 246.519959,67.2848092 C244.557786,67.2848092 242.722757,67.8145532 241.152423,68.7341362 C239.260886,58.0911649 229.78907,50 218.38854,50 C209.468423,50 201.730517,54.9527781 197.878294,62.2045137 C195.414239,59.3896569 191.757563,57.6058699 187.676333,57.6058699 C181.32139,57.6058699 175.996979,61.9298047 174.598401,67.7402287 C166.731121,70.0639611 161,77.2195122 161,85.6874001 C161,85.7916 161.002231,85.8958 161.004461,86 L252.479344,86 Z" id="Fill-17" fill="#FFFFFF"></path>
                <path d="M167.692868,37 C169.086379,36.0222335 170,34.3911379 170,32.5432557 C170,29.5490778 167.605682,27.1228509 164.650882,27.1228509 C163.649342,27.1228509 162.713008,27.4020006 161.911483,27.887543 C160.945843,22.270397 156.11105,18 150.2923,18 C145.739578,18 141.789833,20.6140591 139.823385,24.4412316 C138.565416,22.9556502 136.699342,22.0142623 134.616403,22.0142623 C131.372204,22.0142623 128.654785,24.2964598 127.941178,27.3626524 C123.925493,28.5898718 121,32.3658174 121,36.8351829 C121,36.8901219 121.001465,36.945061 121.002198,37 L167.692868,37 Z" id="Fill-19" fill="#D7F7FB"></path>
                <path d="M608,36.5 C608,56.6584234 624.341409,73 644.500374,73 C664.658591,73 681,56.6584234 681,36.5 C681,16.3415766 664.658591,0 644.500374,0 C624.341409,0 608,16.3415766 608,36.5" id="Fill-21" fill="#D7F7FB"></path>
                <path d="M691,37.5 C691,44.4039962 696.372651,50 703.000368,50 C709.627349,50 715,44.4039962 715,37.5 C715,30.5960038 709.627349,25 703.000368,25 C696.372651,25 691,30.5960038 691,37.5" id="Fill-23" fill="#D7F7FB"></path>
                <path d="M747,262.342466 C720.757406,262.342466 709.381335,256.736432 693.637559,248.978021 C674.671999,239.631644 651.068581,228 607.622352,228 C564.176122,228 540.572705,239.631644 521.607144,248.978021 C505.862627,256.736432 494.486556,262.342466 468.242477,262.342466 C441.999883,262.342466 430.624554,256.736432 414.880036,248.978021 C395.914476,239.631644 372.311059,228 328.864829,228 C285.419341,228 261.815924,239.631644 242.850364,248.978021 C227.105846,256.736432 215.729033,262.342466 189.485696,262.342466 C163.243102,262.342466 151.867773,256.736432 136.123256,248.978021 C117.156953,239.631644 93.5542779,228 50.1087904,228 C29.6136055,228 13,244.712836 13,265.328767 C13,285.944699 29.6136055,302.657534 50.1087904,302.657534 C76.3513849,302.657534 87.7274557,308.263568 103.471973,316.021979 C122.436792,325.368356 146.040209,337 189.485696,337 C232.931926,337 256.535343,325.368356 275.500904,316.021979 C291.245422,308.263568 302.621492,302.657534 328.864829,302.657534 C355.108166,302.657534 366.484236,308.263568 382.228754,316.021979 C401.194315,325.368356 424.79699,337 468.242477,337 C511.688707,337 535.292124,325.368356 554.258427,316.021979 C570.002944,308.263568 581.379015,302.657534 607.622352,302.657534 C633.865688,302.657534 645.241759,308.263568 660.985535,316.021979 C679.951095,325.368356 703.554513,337 747,337 L747,262.342466 Z" id="Fill-25" fill="#EF476F"></path>
                <path d="M732.135956,228 L44.8640436,228 C20.1888196,228 0,207.75 0,183 L0,183 C0,158.25 20.1888196,138 44.8640436,138 L732.135956,138 C756.81118,138 777,158.25 777,183 L777,183 C777,207.75 756.81118,228 732.135956,228" id="Fill-27" fill="#118AB2"></path>
                <polygon id="Fill-29" fill="#FFFFFF" points="198 129 198 173 181 173"></polygon>
                <polygon id="Fill-31" fill="#FFFFFF" points="256 112 256 145 243 145"></polygon>
                <path d="M185,239 C254.5,239 254.5,204 324,204" id="Stroke-33" stroke="#2C97CD" stroke-width="3" stroke-linecap="round"></path>
                <path d="M381,186 C397.813217,192.983174 410.684863,201.889508 432.061731,206.646836 C441.359567,208.716171 452.265618,210 465.805314,210 C478.600591,210 489.043974,208.853487 498,206.980528" id="Stroke-35" stroke="#2C97CD" stroke-width="3" stroke-linecap="round"></path>
                <path d="M431,155 C440.305799,156.851387 451.222802,158 464.774432,158 C477.581687,158 488.035589,156.97424 497,155.298547" id="Stroke-37" stroke="#2C97CD" stroke-width="3" stroke-linecap="round"></path>
                <path d="M465,182 C477.717609,182 488.0976,180.860147 497,179" id="Stroke-39" stroke="#2C97CD" stroke-width="3" stroke-linecap="round"></path>
                <path d="M45,204 C114.50037,204 114.50037,239 184,239" id="Stroke-41" stroke="#2C97CD" stroke-width="3" stroke-linecap="round"></path>
                <path d="M647,208 C702.000371,208 702.000371,235 757,235" id="Stroke-43" stroke="#2C97CD" stroke-width="3" stroke-linecap="round"></path>
                <path d="M647,182 C702.000371,182 702.000371,209 757,209" id="Stroke-45" stroke="#2C97CD" stroke-width="3" stroke-linecap="round"></path>
                <path d="M647,158 C659.917705,158 669.763919,159.188537 678,161" id="Stroke-47" stroke="#2C97CD" stroke-width="3" stroke-linecap="round"></path>
                <path d="M73,168 C102.06186,172.906583 115.794558,185.251256 139,193" id="Stroke-49" stroke="#2C97CD" stroke-width="3" stroke-linecap="round"></path>
                <path d="M185,213 C254.5,213 254.5,178 324,178" id="Stroke-51" stroke="#2C97CD" stroke-width="3" stroke-linecap="round"></path>
                <path d="M544.632849,147 L588.463016,147 C603.42974,147 605.567525,164.83871 588.463016,164.83871 L541.3472,164.83871 C519.630471,164.83871 521.035641,183.423685 541.3472,183.423685 L611.162992,183.423685 C633.612336,183.423685 633.612336,203.934913 611.162992,203.934913 L537.149487,203.934913 C514.641563,203.934913 513.928227,226 537.149487,226" id="Stroke-53" stroke="#2C97CD" stroke-width="3" stroke-linecap="round"></path>
                <path d="M492,232.913043 C492,232.913043 480.706306,239 463.350229,239 C393.675115,239 393.675115,204 324,204" id="Stroke-55" stroke="#2C97CD" stroke-width="3" stroke-linecap="round"></path>
                <path d="M108,289.5 C108,288.671729 104.194202,288 99.5,288 C94.8057981,288 91,288.671729 91,289.5 C91,290.328271 94.8057981,291 99.5,291 C104.194202,291 108,290.328271 108,289.5" id="Fill-57" fill="#C1324F"></path>
                <path d="M653,329.5 C653,327.567255 643.821662,326 632.500367,326 C621.178338,326 612,327.567255 612,329.5 C612,331.432745 621.178338,333 632.500367,333 C643.821662,333 653,331.432745 653,329.5" id="Fill-59" fill="#C1324F"></path>
                <polygon id="Fill-61" fill="#C1324F" points="96 290 102 290 102 126 96 126"></polygon>
                <path d="M104.157188,101 C104.157188,101 104.570712,114.001703 105.102171,117.973804 C105.633631,121.94665 105.436573,129.061717 105.436573,129.061717 C104.80957,129.267324 107.852773,124.288044 111.40131,118.916917 C114.210133,114.666203 127.227906,107.836454 127.227906,107.836454 C127.227906,107.836454 120.2943,119.138169 118.367759,122.170881 C116.440472,125.203594 114.117576,133.108313 114.117576,133.108313 C114.117576,133.108313 121.46993,127.684295 124.865449,125.989522 C129.905358,123.475298 148.48778,128.111154 148.48778,128.111154 C148.48778,128.111154 132.947068,132.339519 128.881253,134.005239 C126.243363,135.086169 119.685958,140.274782 119.685958,140.274782 C119.685958,140.274782 132.604455,140.586918 137.542849,140.920658 C142.481243,141.254398 160,145.298015 160,145.298015 C160,145.298015 142.154305,146.12715 137.542849,148.150448 C132.931393,150.173746 128.426676,153.161762 128.426676,153.161762 C128.426676,153.161762 133.043357,155.564987 138.127305,157.986836 C143.212,160.409431 157.928651,167.835889 157.928651,167.835889 C157.928651,167.835889 143.448618,164.277238 137.031543,163.600819 C130.613721,162.924399 118.960426,159.937874 118.960426,159.937874 C118.960426,159.937874 127.464525,165.124252 130.298727,169.368262 C133.133676,173.611526 133.133676,186.813622 133.133676,186.813622 C133.133676,186.813622 122.737372,176.227809 119.273928,172.71907 C115.810484,169.211076 110.998237,166.605968 110.998237,166.605968 C110.998237,166.605968 114.202669,174.411608 114.944622,177.619385 C116.362097,183.748876 109.747963,191.528443 109.747963,191.528443 C109.747963,191.528443 108.228974,179.704515 106.677142,175.733159 C105.124564,171.761803 100.535501,164.917899 100.535501,164.917899 C100.535501,164.917899 96.1211021,172.856142 93.7638701,175.812124 C91.4058917,178.767361 85.8897597,192 85.8897597,192 C85.8897597,192 84.0363693,179.498907 84.9447769,175.733159 C85.8524381,171.968155 87.7095608,167.077524 87.7095608,167.077524 C87.7095608,167.077524 79.8488861,170.124391 76.7556722,172.668413 C73.6624583,175.21318 64.4723885,186.813622 64.4723885,186.813622 C64.4723885,186.813622 66.7109378,173.268102 68.2515733,170.154189 C69.7929552,167.040277 76.5922036,160.83182 76.5922036,160.83182 C76.5922036,160.83182 69.8750627,160.035463 65.5748684,161.352544 C61.2746741,162.669625 44.5590775,166.893521 44.5590775,166.893521 C44.5590775,166.893521 57.0476301,156.502141 62.5824228,154.122754 C67.7007065,151.922156 80.2026949,148.918497 80.2026949,148.918497 C80.2026949,148.918497 70.7610774,147.62451 67.459609,147.730293 C64.1573942,147.836077 44,150.036675 44,150.036675 C44,150.036675 60.2766946,142.354697 64.8657581,141.31325 C70.0631636,140.13473 78.5493482,142.63182 78.5493482,142.63182 C78.5493482,142.63182 71.1036897,135.429594 67.7880391,133.617118 C64.4723885,131.804642 54.6687515,122.627539 54.6687515,122.627539 C54.6687515,122.627539 66.5892694,124.936155 71.7165103,126.775449 C76.8437512,128.614744 82.7010025,134.522983 82.7010025,134.522983 C82.7010025,134.522983 80.2094128,125.084401 79.2756264,121.431886 C78.3410937,117.77937 71.9844794,106.943997 71.9844794,106.943997 C71.9844794,106.943997 83.7676538,114.093332 86.204754,116.717064 C88.6418542,119.340052 95.6336821,129.061717 95.6336821,129.061717 C95.6336821,129.061717 96.8152838,120.478343 97.6512876,117.182661 C98.4880378,113.887725 104.157188,101 104.157188,101" id="Fill-63" fill="#C1324F"></path>
                <polygon id="Fill-64" fill="#D7F7FB" points="213 173 178 173 182.486985 178 207.615617 178"></polygon>
                <polygon id="Fill-65" fill="#D7F7FB" points="267 144 242 144 245.205184 148 263.154071 148"></polygon>
                <path d="M243,300.5 C243,301.328715 242.328715,302 241.5,302 C240.671285,302 240,301.328715 240,300.5 C240,299.671285 240.671285,299 241.5,299 C242.328715,299 243,299.671285 243,300.5" id="Fill-66" fill="#4418B1"></path>
                <path d="M171,282.5 C171,283.328715 170.328715,284 169.5,284 C168.671285,284 168,283.328715 168,282.5 C168,281.671285 168.671285,281 169.5,281 C170.328715,281 171,281.671285 171,282.5" id="Fill-67" fill="#4418B1"></path>
                <path d="M194,308.5 C194,309.328715 193.328715,310 192.5,310 C191.671285,310 191,309.328715 191,308.5 C191,307.671285 191.671285,307 192.5,307 C193.328715,307 194,307.671285 194,308.5" id="Fill-68" fill="#4418B1"></path>
                <path d="M422,328.5 C422,329.328715 421.328715,330 420.5,330 C419.671285,330 419,329.328715 419,328.5 C419,327.671285 419.671285,327 420.5,327 C421.328715,327 422,327.671285 422,328.5" id="Fill-69" fill="#4418B1"></path>
                <path d="M667,343 C667,343.552651 666.552072,344 666.000373,344 C665.447928,344 665,343.552651 665,343 C665,342.447349 665.447928,342 666.000373,342 C666.552072,342 667,342.447349 667,343" id="Fill-70" fill="#4418B1"></path>
                <path d="M253,288.5 C253,289.328715 252.328715,290 251.5,290 C250.671285,290 250,289.328715 250,288.5 C250,287.671285 250.671285,287 251.5,287 C252.328715,287 253,287.671285 253,288.5" id="Fill-71" fill="#4418B1"></path>
                <path d="M270,319.5 C270,320.328715 269.328715,321 268.5,321 C267.671285,321 267,320.328715 267,319.5 C267,318.671285 267.671285,318 268.5,318 C269.328715,318 270,318.671285 270,319.5" id="Fill-72" fill="#4418B1"></path>
                <path d="M235,289.5 C235,290.328715 234.328715,291 233.5,291 C232.671285,291 232,290.328715 232,289.5 C232,288.671285 232.671285,288 233.5,288 C234.328715,288 235,288.671285 235,289.5" id="Fill-73" fill="#4418B1"></path>
                <path d="M306,306.5 C306,307.328715 305.328715,308 304.5,308 C303.671285,308 303,307.328715 303,306.5 C303,305.671285 303.671285,305 304.5,305 C305.328715,305 306,305.671285 306,306.5" id="Fill-74" fill="#4418B1"></path>
                <path d="M559,352.5 C559,353.328715 558.328715,354 557.5,354 C556.671285,354 556,353.328715 556,352.5 C556,351.671285 556.671285,351 557.5,351 C558.328715,351 559,351.671285 559,352.5" id="Fill-75" fill="#4418B1"></path>
                <path d="M327,353.5 C327,354.328715 326.328715,355 325.5,355 C324.671285,355 324,354.328715 324,353.5 C324,352.671285 324.671285,352 325.5,352 C326.328715,352 327,352.671285 327,353.5" id="Fill-76" fill="#4418B1"></path>
                <path d="M256,335.5 C256,336.328715 255.328715,337 254.5,337 C253.671285,337 253,336.328715 253,335.5 C253,334.671285 253.671285,334 254.5,334 C255.328715,334 256,334.671285 256,335.5" id="Fill-77" fill="#4418B1"></path>
                <path d="M298,303.5 C298,304.328715 297.328715,305 296.5,305 C295.671285,305 295,304.328715 295,303.5 C295,302.671285 295.671285,302 296.5,302 C297.328715,302 298,302.671285 298,303.5" id="Fill-78" fill="#4418B1"></path>
                <path d="M339,272.5 C339,273.328715 338.328715,274 337.5,274 C336.671285,274 336,273.328715 336,272.5 C336,271.671285 336.671285,271 337.5,271 C338.328715,271 339,271.671285 339,272.5" id="Fill-79" fill="#4418B1"></path>
                <path d="M382,267.5 C382,268.328715 381.328715,269 380.5,269 C379.671285,269 379,268.328715 379,267.5 C379,266.671285 379.671285,266 380.5,266 C381.328715,266 382,266.671285 382,267.5" id="Fill-80" fill="#4418B1"></path>
                <path d="M578,254.5 C578,255.328715 577.328715,256 576.5,256 C575.671285,256 575,255.328715 575,254.5 C575,253.671285 575.671285,253 576.5,253 C577.328715,253 578,253.671285 578,254.5" id="Fill-81" fill="#4418B1"></path>
                <path d="M110,336.5 C110,337.328715 109.328715,338 108.5,338 C107.671285,338 107,337.328715 107,336.5 C107,335.671285 107.671285,335 108.5,335 C109.328715,335 110,335.671285 110,336.5" id="Fill-82" fill="#4418B1"></path>
                <path d="M338,341.5 C338,342.328715 337.328715,343 336.5,343 C335.671285,343 335,342.328715 335,341.5 C335,340.671285 335.671285,340 336.5,340 C337.328715,340 338,340.671285 338,341.5" id="Fill-83" fill="#4418B1"></path>
                <path d="M354,372.5 C354,373.328715 353.328715,374 352.5,374 C351.671285,374 351,373.328715 351,372.5 C351,371.671285 351.671285,371 352.5,371 C353.328715,371 354,371.671285 354,372.5" id="Fill-84" fill="#4418B1"></path>
                <path d="M320,342.5 C320,343.328715 319.328715,344 318.5,344 C317.671285,344 317,343.328715 317,342.5 C317,341.671285 317.671285,341 318.5,341 C319.328715,341 320,341.671285 320,342.5" id="Fill-85" fill="#4418B1"></path>
                <path d="M144,351.5 C144,352.328715 143.328715,353 142.5,353 C141.671285,353 141,352.328715 141,351.5 C141,350.671285 141.671285,350 142.5,350 C143.328715,350 144,350.671285 144,351.5" id="Fill-86" fill="#4418B1"></path>
                <path d="M419,369.5 C419,370.328715 418.328715,371 417.5,371 C416.671285,371 416,370.328715 416,369.5 C416,368.671285 416.671285,368 417.5,368 C418.328715,368 419,368.671285 419,369.5" id="Fill-87" fill="#4418B1"></path>
                <path d="M422,349.5 C422,350.328715 421.328715,351 420.5,351 C419.671285,351 419,350.328715 419,349.5 C419,348.671285 419.671285,348 420.5,348 C421.328715,348 422,348.671285 422,349.5" id="Fill-88" fill="#4418B1"></path>
                <path d="M130,367.5 C130,368.328715 129.328715,369 128.5,369 C127.671285,369 127,368.328715 127,367.5 C127,366.671285 127.671285,366 128.5,366 C129.328715,366 130,366.671285 130,367.5" id="Fill-89" fill="#4418B1"></path>
                <path d="M213,373.5 C213,374.328715 212.328715,375 211.5,375 C210.671285,375 210,374.328715 210,373.5 C210,372.671285 210.671285,372 211.5,372 C212.328715,372 213,372.671285 213,373.5" id="Fill-90" fill="#4418B1"></path>
                <path d="M460,385.5 C460,386.328715 459.328715,387 458.5,387 C457.671285,387 457,386.328715 457,385.5 C457,384.671285 457.671285,384 458.5,384 C459.328715,384 460,384.671285 460,385.5" id="Fill-91" fill="#4418B1"></path>
                <path d="M194,374.5 C194,375.328715 193.328715,376 192.5,376 C191.671285,376 191,375.328715 191,374.5 C191,373.671285 191.671285,373 192.5,373 C193.328715,373 194,373.671285 194,374.5" id="Fill-92" fill="#4418B1"></path>
                <path d="M358,281.5 C358,282.328715 357.328715,283 356.5,283 C355.671285,283 355,282.328715 355,281.5 C355,280.671285 355.671285,280 356.5,280 C357.328715,280 358,280.671285 358,281.5" id="Fill-93" fill="#4418B1"></path>
                <path d="M73,313.5 C73,314.328715 72.3287146,315 71.5,315 C70.6712854,315 70,314.328715 70,313.5 C70,312.671285 70.6712854,312 71.5,312 C72.3287146,312 73,312.671285 73,313.5" id="Fill-94" fill="#4418B1"></path>
                <path d="M52,356.5 C52,357.328715 51.3287146,358 50.5,358 C49.6712854,358 49,357.328715 49,356.5 C49,355.671285 49.6712854,355 50.5,355 C51.3287146,355 52,355.671285 52,356.5" id="Fill-95" fill="#4418B1"></path>
                <path d="M64,274.5 C64,275.328715 63.3287146,276 62.5,276 C61.6712854,276 61,275.328715 61,274.5 C61,273.671285 61.6712854,273 62.5,273 C63.3287146,273 64,273.671285 64,274.5" id="Fill-96" fill="#4418B1"></path>
                <path d="M62,344.5 C62,345.328715 61.3287146,346 60.5,346 C59.6712854,346 59,345.328715 59,344.5 C59,343.671285 59.6712854,343 60.5,343 C61.3287146,343 62,343.671285 62,344.5" id="Fill-97" fill="#4418B1"></path>
                <path d="M79,375.5 C79,376.328715 78.3287146,377 77.5,377 C76.6712854,377 76,376.328715 76,375.5 C76,374.671285 76.6712854,374 77.5,374 C78.3287146,374 79,374.671285 79,375.5" id="Fill-98" fill="#4418B1"></path>
                <path d="M83,284.5 C83,285.328715 82.3287146,286 81.5,286 C80.6712854,286 80,285.328715 80,284.5 C80,283.671285 80.6712854,283 81.5,283 C82.3287146,283 83,283.671285 83,284.5" id="Fill-99" fill="#4418B1"></path>
                <path d="M390,359.5 C390,360.328715 389.328715,361 388.5,361 C387.671285,361 387,360.328715 387,359.5 C387,358.671285 387.671285,358 388.5,358 C389.328715,358 390,358.671285 390,359.5" id="Fill-100" fill="#4418B1"></path>
                <path d="M488,292.5 C488,293.328715 487.328715,294 486.5,294 C485.671285,294 485,293.328715 485,292.5 C485,291.671285 485.671285,291 486.5,291 C487.328715,291 488,291.671285 488,292.5" id="Fill-101" fill="#4418B1"></path>
                <path d="M416,273.5 C416,274.328715 415.328715,275 414.5,275 C413.671285,275 413,274.328715 413,273.5 C413,272.671285 413.671285,272 414.5,272 C415.328715,272 416,272.671285 416,273.5" id="Fill-102" fill="#4418B1"></path>
                <path d="M440,300.5 C440,301.328715 439.328715,302 438.5,302 C437.671285,302 437,301.328715 437,300.5 C437,299.671285 437.671285,299 438.5,299 C439.328715,299 440,299.671285 440,300.5" id="Fill-103" fill="#4418B1"></path>
                <path d="M680,320 C680,320.552651 679.551904,321 679,321 C678.447349,321 678,320.552651 678,320 C678,319.447349 678.447349,319 679,319 C679.551904,319 680,319.447349 680,320" id="Fill-104" fill="#4418B1"></path>
                <path d="M498,279.5 C498,280.328715 497.328715,281 496.5,281 C495.671285,281 495,280.328715 495,279.5 C495,278.671285 495.671285,278 496.5,278 C497.328715,278 498,278.671285 498,279.5" id="Fill-105" fill="#4418B1"></path>
                <path d="M515,311.5 C515,312.328715 514.328715,313 513.5,313 C512.671285,313 512,312.328715 512,311.5 C512,310.671285 512.671285,310 513.5,310 C514.328715,310 515,310.671285 515,311.5" id="Fill-106" fill="#4418B1"></path>
                <path d="M480,280.5 C480,281.328715 479.328715,282 478.5,282 C477.671285,282 477,281.328715 477,280.5 C477,279.671285 477.671285,279 478.5,279 C479.328715,279 480,279.671285 480,280.5" id="Fill-107" fill="#4418B1"></path>
                <path d="M551,298.5 C551,299.328715 550.328715,300 549.5,300 C548.671285,300 548,299.328715 548,298.5 C548,297.671285 548.671285,297 549.5,297 C550.328715,297 551,297.671285 551,298.5" id="Fill-108" fill="#4418B1"></path>
                <path d="M585,380.5 C585,381.328715 584.328715,382 583.5,382 C582.671285,382 582,381.328715 582,380.5 C582,379.671285 582.671285,379 583.5,379 C584.328715,379 585,379.671285 585,380.5" id="Fill-109" fill="#4418B1"></path>
                <path d="M573,345.5 C573,346.328715 572.328715,347 571.5,347 C570.671285,347 570,346.328715 570,345.5 C570,344.671285 570.671285,344 571.5,344 C572.328715,344 573,344.671285 573,345.5" id="Fill-110" fill="#4418B1"></path>
                <path d="M501,327.5 C501,328.328715 500.328715,329 499.5,329 C498.671285,329 498,328.328715 498,327.5 C498,326.671285 498.671285,326 499.5,326 C500.328715,326 501,326.671285 501,327.5" id="Fill-111" fill="#4418B1"></path>
                <path d="M542,295.5 C542,296.328715 541.328715,297 540.5,297 C539.671285,297 539,296.328715 539,295.5 C539,294.671285 539.671285,294 540.5,294 C541.328715,294 542,294.671285 542,295.5" id="Fill-112" fill="#4418B1"></path>
                <path d="M583,332.5 C583,333.328715 582.328715,334 581.5,334 C580.671285,334 580,333.328715 580,332.5 C580,331.671285 580.671285,331 581.5,331 C582.328715,331 583,331.671285 583,332.5" id="Fill-113" fill="#4418B1"></path>
                <path d="M599,364.5 C599,365.328715 598.328715,366 597.5,366 C596.671285,366 596,365.328715 596,364.5 C596,363.671285 596.671285,363 597.5,363 C598.328715,363 599,363.671285 599,364.5" id="Fill-114" fill="#4418B1"></path>
                <path d="M565,333.5 C565,334.328715 564.328715,335 563.5,335 C562.671285,335 562,334.328715 562,333.5 C562,332.671285 562.671285,332 563.5,332 C564.328715,332 565,332.671285 565,333.5" id="Fill-115" fill="#4418B1"></path>
                <path d="M604,273.5 C604,274.328715 603.328715,275 602.5,275 C601.671285,275 601,274.328715 601,273.5 C601,272.671285 601.671285,272 602.5,272 C603.328715,272 604,272.671285 604,273.5" id="Fill-116" fill="#4418B1"></path>
                <path d="M636,350.5 C636,351.328715 635.328715,352 634.5,352 C633.671285,352 633,351.328715 633,350.5 C633,349.671285 633.671285,349 634.5,349 C635.328715,349 636,349.671285 636,350.5" id="Fill-117" fill="#4418B1"></path>
                <path d="M607,305.95508 C608.369905,312.219406 617.275024,315.516301 626.891467,313.319369 C636.507178,311.122437 643.191877,304.264326 641.821972,298 L607,305.95508 Z" id="Fill-118" fill="#332E9C"></path>
                <polygon id="Fill-119" fill="#FFD166" points="634 330 635 330 635 310 634 310"></polygon>
                <polygon id="Fill-120" fill="#E1B549" points="638 328 639 328 639 308 638 308"></polygon>
                <path d="M615,303.877399 C617.133787,313.609961 626.602011,319.736744 636.148053,317.561265 C645.694094,315.385786 651.70346,305.732562 649.569673,296 L615,303.877399 Z" id="Fill-121" fill="#FFFFFF"></path>
                <path d="M621,302.296585 C622.219528,307.605377 627.629308,310.94749 633.084895,309.760612 C638.53973,308.574465 641.973033,303.308792 640.754256,298" id="Fill-122" fill="#8BBDE0"></path>
                <path d="M653.919614,291.948977 C653.338926,288.127114 649.770527,285.500301 645.948556,286.080207 C642.127351,286.660879 639.499698,290.229177 640.080386,294.051041 C640.660309,297.872138 644.229473,300.499717 648.050678,299.919811 C651.87265,299.339139 654.500303,295.770841 653.919614,291.948977" id="Fill-123" fill="#FFFFFF"></path>
                <path d="M649.982856,292.274706 C649.858808,291.455731 649.093974,290.892496 648.275107,291.017321 C647.456239,291.141385 646.893078,291.90632 647.017125,292.725294 C647.141934,293.544269 647.906007,294.107504 648.725636,293.982679 C649.544503,293.858615 650.106904,293.09368 649.982856,292.274706" id="Fill-124" fill="#000000"></path>
                <polygon id="Fill-125" fill="#FFD166" points="653.632313 292 661 294.854457 653 296"></polygon>
                <path d="M777.308227,157.986617 C776.191257,158.114109 775.172188,157.316184 775.042394,156.212717 L774.013683,147.431877 C773.883889,146.329143 774.692321,145.321661 775.808549,145.194169 L777.501064,145 C776.384093,145.128225 775.576404,146.134973 775.705456,147.23844 L776.734908,156.019281 C776.863961,157.122747 777.883771,157.920673 779,157.79318 L777.308227,157.986617 Z" id="Fill-126" fill="#AFAFAF"></path>
                <path d="M730.012171,27 C730.012171,27 729.103023,52 743,52 L743,27 L730.012171,27 Z" id="Fill-127" fill="#1D0C28"></path>
                <path d="M791.838954,54 C791.838954,54 813.861513,102 785.553262,102 L760,102 L760,54 L791.838954,54 Z" id="Fill-128" fill="#1D0C4B"></path>
                <path d="M707.024764,106.836125 C707.024764,106.836125 707.839414,125.601114 709.61602,149.151641 C710.781825,164.606467 746,161.662374 746,141.792517 L746,107.024706 C746,102.611155 742.367182,99 737.927153,99 C733.487125,99 729.854307,102.611155 729.854307,107.024706 C729.854307,107.024706 730.571496,124.527307 729.854307,133.329266 C729.087271,142.752435 724.107862,139.585002 723.36761,131.857589 C722.480794,122.603034 720.962346,105.24982 721.6654,104.628609 C720.088178,100.59444 706.339565,97.637035 707.024764,106.836125" id="Fill-129" fill="#EB6C6A"></path>
                <path d="M755.5,188 L755.5,188 C751.358031,188 748,191.343985 748,195.468629 L748,331.531371 C748,335.656758 751.358031,339 755.5,339 C759.641969,339 763,335.656758 763,331.531371 L763,195.468629 C763,191.343985 759.641969,188 755.5,188" id="Fill-130" fill="#FF8583"></path>
                <polygon id="Fill-131" fill="#C1324F" points="718 359 764 359 764 356 718 356"></polygon>
                <polyline id="Fill-132" fill="#FF8583" points="763 332 763 356 722.604968 356 720 348.278487 739.626645 348.278487 748.205899 332 762.858018 332"></polyline>
                <polygon id="Fill-133" fill="#C1324F" points="749 356.911349 732.044972 348 727 348 727 348.855675 742.928101 357"></polygon>
                <path d="M774.5,188 L774.5,188 C770.358031,188 767,191.343985 767,195.468629 L767,331.531371 C767,335.656758 770.358031,339 774.5,339 C778.641969,339 782,335.656758 782,331.531371 L782,195.468629 C782,191.343985 778.641969,188 774.5,188" id="Fill-134" fill="#FF8583"></path>
                <polyline id="Fill-135" fill="#FF8583" points="782 332 782 356 741.604968 356 739 348.278487 758.626645 348.278487 767.205899 332 781.858018 332"></polyline>
                <polygon id="Fill-136" fill="#EF476F" points="737 359 783 359 783 356 737 356"></polygon>
                <polygon id="Fill-137" fill="#EF476F" points="768 356.911349 751.044972 348 746 348 746 348.855675 761.928101 357"></polygon>
                <path d="M742.133949,196 L784.866051,196 C788.806477,196 792,192.642011 792,188.500388 L792,188.500388 C792,184.357989 791.985239,186.298453 791.985239,181 L735.014761,181 C735.014761,184.87317 735,184.357989 735,188.500388 L735,188.500388 C735,192.642011 738.193523,196 742.133949,196" id="Fill-138" fill="#EF476F"></path>
                <polygon id="Fill-139" fill="#4418B1" points="733 181 793 181 789.6297 139 736.369567 139"></polygon>
                <path d="M790,99 L736.923991,99 C736.923991,99 721.345011,131.758052 736.923991,140.457889 C751.197259,148.427639 790,140.457889 790,140.457889 L790,99 Z" id="Fill-140" fill="#4418B1"></path>
                <path d="M744.776629,99 L774.489529,99 C774.489529,99 779.3084,122 759.334506,122 C738.92727,122 744.776629,99 744.776629,99" id="Fill-141" fill="#EB6C6A"></path>
                <polygon id="Fill-142" fill="#EB6C6A" points="753 107 768 107 768 82 753 82"></polygon>
                <path d="M783.925382,34.0282251 C782.932217,21.144911 772.152907,11 759,11 C745.847839,11 735.068529,21.144911 734.075364,34.0282251 L734,34.0282251 L734,62.0279113 C734,75.8198027 745.19344,87 759,87 C772.807307,87 784,75.8198027 784,62.0279113 L784,34.0282251 L783.925382,34.0282251 Z" id="Fill-143" fill="#EB6C6A"></path>
                <path d="M783,34.0282251 C783,13.5118177 771.445731,11 758.536617,11 C745.628236,11 735.048724,12.5860973 734.073967,25.4694114 L734,34.0282251 L734,62.0279113 C734,75.8198027 744.985966,87 758.536617,87 C772.088001,87 778.28587,75.8198027 778.28587,62.0279113 L778.28587,34.0282251 L783,34.0282251 Z" id="Fill-144" fill="#FF8583"></path>
                <path d="M779.687511,53 L779.687511,34.4759529 C747.662004,34.4759529 744.750864,16.6375114 744.750864,16.6375114 C744.750864,16.6375114 743.996921,27.9895864 733.532994,27.9895864 C732.288543,27.9895864 731.441842,27.9582188 730,27.9582188 L730,15.2767561 C730,6.87472698 734.955542,0 743.303828,0 L778.99516,0 C778.99516,0 797,0.353258649 797,26.5003734 C797,49.6675685 789.913233,53 789.913233,53 L779.687511,53 Z" id="Fill-145" fill="#1D0C4B"></path>
                <polygon id="Fill-146" fill="#E9573F" points="784 56 793 56 793 52 784 52"></polygon>
                <path d="M792,51 C792,55.418534 788.418534,59 784,59 C779.581466,59 776,55.418534 776,51 C776,46.581466 779.581466,43 784,43 C788.418534,43 792,46.581466 792,51" id="Fill-147" fill="#FF8583"></path>
                <path d="M786,49.5 C786,50.880597 784.880597,52 783.5,52 C782.119403,52 781,50.880597 781,49.5 C781,48.119403 782.119403,47 783.5,47 C784.880597,47 786,48.119403 786,49.5" id="Fill-148" fill="#EB6C6A"></path>
                <path d="M774,53 C774,54.656728 771.985513,56 769.5,56 C767.014487,56 765,54.656728 765,53 C765,51.343272 767.014487,50 769.5,50 C771.985513,50 774,51.343272 774,53" id="Fill-149" fill="#EB6C6A"></path>
                <path d="M743,53 C743,54.656728 741.433084,56 739.500379,56 C737.566916,56 736,54.656728 736,53 C736,51.343272 737.566916,50 739.500379,50 C741.433084,50 743,51.343272 743,53" id="Fill-150" fill="#EB6C6A"></path>
                <path d="M745,45 C745,46.1044558 744.104456,47 743,47 C741.895544,47 741,46.1044558 741,45 C741,43.8955442 741.895544,43 743,43 C744.104456,43 745,43.8955442 745,45" id="Fill-151" fill="#1D0C4B"></path>
                <path d="M768,45 C768,46.1044558 767.104456,47 766,47 C764.895544,47 764,46.1044558 764,45 C764,43.8955442 764.895544,43 766,43 C767.104456,43 768,43.8955442 768,45" id="Fill-152" fill="#1D0C4B"></path>
                <path d="M746,34.8254843 L746,33.0100995 C746,33.0100995 740.671997,32.5564509 736,37.7299419 L736.983653,39 C736.983653,39 740.999643,34.8254843 746,34.8254843" id="Fill-153" fill="#1D0C4B"></path>
                <path d="M762,34.8254843 L762,33.0100995 C762,33.0100995 767.328003,32.5564509 772,37.7299419 L771.016347,39 C771.016347,39 767.000357,34.8254843 762,34.8254843" id="Fill-154" fill="#1D0C4B"></path>
                <path d="M758.953136,58.6669992 C756.428134,63.3566004 750.682871,63.4970303 748.067716,58.7952838 C745.960302,55.0074706 740.353514,58.4377568 742.468861,62.2399925 C747.500113,71.2829221 759.622431,71.2662223 764.551991,62.1117078 C766.612525,58.2851815 761.012949,54.841991 758.953136,58.6669992" id="Fill-155" fill="#E9573F"></path>
                <path d="M763,212 L763,195.456203 C763,191.338421 759.641969,188 755.5,188 C751.358031,188 748,191.338421 748,195.456203 L748,212 L763,212 Z" id="Fill-156" fill="#EF476F"></path>
                <polygon id="Fill-157" fill="#C1324F" points="748 215 763 215 763 212 748 212"></polygon>
                <path d="M782,212 L782,195.456203 C782,191.338421 778.641969,188 774.5,188 C770.358031,188 767,191.338421 767,195.456203 L767,212 L782,212 Z" id="Fill-158" fill="#EF476F"></path>
                <polygon id="Fill-159" fill="#C1324F" points="767 215 782 215 782 212 767 212"></polygon>
                <path d="M778.090011,153 L778.090011,114.836075 C778.090011,114.836075 778.090011,99 784,99 L778.910704,99 C773,99 773,114.836075 773,114.836075 L773,153 L778.090011,153 Z" id="Fill-160" fill="#D7F7FB"></path>
                <path d="M775.121259,124.881163 C779.605552,122.738727 784.977066,124.637272 787.118807,129.121491 C789.261278,133.604979 787.362701,138.976402 782.879138,141.118837 C778.394844,143.261273 773.023331,141.362728 770.88086,136.878509 C768.739118,132.395021 770.636965,127.023598 775.121259,124.881163" id="Fill-161" fill="#FF8583"></path>
                <path d="M778.528773,120.264608 L778.528773,120.264608 C779.863381,119.618869 781.477683,120.196244 782.115622,121.54791 L784.738588,127.104678 C785.376528,128.456344 784.806126,130.089638 783.470785,130.735376 C782.136177,131.381115 780.521875,130.80374 779.883936,129.452817 L777.26097,123.895306 C776.623764,122.54364 777.194166,120.910346 778.528773,120.264608" id="Fill-162" fill="#FF8583"></path>
                <path d="M773.529031,122.264608 L773.529031,122.264608 C774.863585,121.618869 776.477823,122.196244 777.115737,123.54791 L779.738599,129.104678 C780.376513,130.456344 779.806134,132.089638 778.470846,132.735376 C777.136292,133.381115 775.522054,132.80374 774.88414,131.452817 L772.261278,125.895306 C771.623364,124.54364 772.194477,122.910346 773.529031,122.264608" id="Fill-163" fill="#FF8583"></path>
                <path d="M768.529031,126.264608 L768.529031,126.264608 C769.863585,125.618869 771.477823,126.196244 772.115737,127.54791 L774.738599,133.104678 C775.376513,134.456344 774.806134,136.090381 773.470846,136.735376 C772.136292,137.381115 770.522054,136.80374 769.88414,135.452817 L767.261278,129.895306 C766.623364,128.544383 767.194477,126.910346 768.529031,126.264608" id="Fill-164" fill="#FF8583"></path>
                <path d="M783.145855,123.032354 L783.145855,123.032354 C784.528875,122.807579 785.841006,123.778295 786.061316,125.189344 L786.968271,130.99308 C787.188582,132.404129 786.237842,133.742853 784.854127,133.967628 C783.471108,134.192403 782.158976,133.222396 781.938666,131.810638 L781.031711,126.006901 C780.811401,124.595853 781.762835,123.257129 783.145855,123.032354" id="Fill-165" fill="#FF8583"></path>
                <path d="M786.405773,99.8811625 C791.139194,97.738727 796.809125,99.6372725 799.069852,104.121491 C801.331349,108.604979 799.327295,113.976402 794.594645,116.118837 C789.861224,118.261273 784.191294,116.362728 781.929796,111.878509 C779.669069,107.395021 781.672352,102.023598 786.405773,99.8811625" id="Fill-166" fill="#FF8583"></path>
                <path d="M726.987018,94.8191821 C727.16863,98.5588172 725.437663,102.24092 722.24325,104.312849 C719.078981,106.364605 714.819764,106.591001 711.504025,104.738742 C708.256108,102.924589 706.062445,99.4838259 706.001406,95.7553984 C705.941873,92.0874926 707.776079,88.4629231 710.971999,86.5292217 C714.993086,84.0956569 720.17845,84.6067279 723.642643,87.7762648 C725.968181,89.9049802 722.726293,93.5721389 720.394726,91.4389405 C719.431655,90.5580154 718.547709,90.0984998 717.251557,89.8855535 C716.814482,89.8138243 716.23046,89.8437115 715.609512,89.8990028 C715.557515,89.9034859 715.132498,89.9856756 715.487433,89.9087161 C715.361585,89.9356146 715.237245,89.9699849 715.113659,90.0051023 C714.785853,90.0977526 714.470857,90.2150599 714.155109,90.3428276 C713.769277,90.498241 714.412078,90.1941388 714.046594,90.3876584 C713.936571,90.4459384 713.828056,90.5087015 713.721048,90.572959 C713.436196,90.7455576 713.167923,90.93833 712.903417,91.1400685 C712.904171,91.1393213 712.601987,91.403823 712.762498,91.2558814 C712.946371,91.0870187 712.583901,91.4426764 712.551497,91.4777938 C712.326177,91.7213744 712.109147,91.9664494 711.910956,92.2331926 C711.745169,92.4551051 711.879306,92.272046 711.910203,92.2257208 C711.819774,92.3639491 711.736127,92.508902 711.656247,92.6538549 C711.515328,92.9093904 711.39551,93.1738921 711.277198,93.4406353 C711.10915,93.8179611 711.35557,93.1574541 711.228216,93.5527122 C711.189783,93.6730082 711.155119,93.7947985 711.122715,93.917336 C711.036054,94.2483367 710.978782,94.5838204 710.928292,94.9215457 C710.852934,95.4206619 710.906438,95.1621376 710.911713,95.0470719 C710.904178,95.2226592 710.905685,95.400488 710.911713,95.5753281 C710.92151,95.8861549 710.953914,96.193993 710.99536,96.5018311 C711.033793,96.7887482 710.996868,96.563847 710.98481,96.5033255 C711.019475,96.6706938 711.067704,96.8403036 711.116686,97.0031888 C711.213898,97.3297064 711.335977,97.6465106 711.468607,97.959579 C711.4882,98.0066513 711.685637,98.3660448 711.521357,98.0709088 C711.581643,98.1799971 711.643437,98.2905797 711.712766,98.3944377 C711.875538,98.6372711 712.039818,98.8741271 712.212387,99.110236 C712.488196,99.488309 712.362349,99.2955366 712.28247,99.2073693 C712.365363,99.2992725 712.454285,99.3874397 712.543961,99.471871 C712.815249,99.7281537 713.094072,99.9717343 713.395503,100.191405 C713.143055,100.007599 713.724816,100.387914 713.819013,100.437975 C714.07523,100.57695 714.340489,100.695752 714.608008,100.810817 C714.608008,100.810817 714.990826,100.94531 714.77907,100.876569 C714.536419,100.798862 715.035287,100.940827 715.082762,100.952034 C715.415089,101.029741 715.74817,101.093251 716.08728,101.133599 C716.51079,101.18366 715.775299,101.135841 716.207099,101.139576 C716.338221,101.141071 716.470097,101.142565 716.601973,101.138082 C716.91094,101.128369 717.217646,101.097734 717.523598,101.055892 C717.95163,100.997612 717.228196,101.138082 717.641156,101.034971 C717.765496,101.00359 717.889836,100.970714 718.012669,100.934102 C718.175442,100.885535 718.336707,100.831738 718.496466,100.772711 C718.548462,100.753284 719.10837,100.519417 718.905658,100.614309 C721.023209,99.6265372 722.188993,97.3999413 722.078971,95.1315033 C721.926748,92.0000725 726.834041,91.678038 726.987018,94.8191821" id="Fill-167" fill="#EB6C6A"></path>
                <path d="M716.920854,77.8054589 C715.610345,81.9175938 714.299837,86.0304429 712.989328,90.1425778 C712.604472,91.3485851 711.429162,92.2211375 710.024168,91.9505177 C708.782027,91.7120296 707.692753,90.4074853 708.079146,89.1943377 C709.389655,85.0822027 710.700163,80.9693537 712.010672,76.8572187 C712.395528,75.6512114 713.570838,74.7793731 714.975832,75.0492788 C716.217973,75.288481 717.307247,76.5930253 716.920854,77.8054589" id="Fill-168" fill="#EB6C6A"></path>
                <path d="M709.977809,78.1793455 C710.315968,83.2901104 710.65489,88.400135 710.993812,93.5108999 C711.19915,96.6128862 706.22753,96.9274517 706.022192,93.8210245 C705.68327,88.7102597 705.344348,83.5994948 705.006189,78.48873 C704.800851,75.3874838 709.771708,75.0721781 709.977809,78.1793455" id="Fill-169" fill="#EB6C6A"></path>
                <polygon id="Fill-170" fill="#EB6C6A" transform="translate(711.612603, 100.594998) rotate(-1.000000) translate(-711.612603, -100.594998) " points="717.112603 106.388132 706.888793 107.094998 706.112603 94.0949983 710.708686 99.5392297"></polygon>
                <path d="M829.519629,215.44584 C831.728742,215.192541 833.275939,212.76706 832.958756,210.055882 L820.858895,147 L773,152.480527 L781.022645,221 L829.519629,215.44584 Z" id="Fill-171" fill="#CAE0EB"></path>
                <path d="M769,152.947796 L771.878322,217.479452 C772.206155,220.20872 774.337449,222.233254 776.615385,221.978335 L786.4112,220.883812 C788.689136,220.628893 790.284536,218.187891 789.957471,215.459365 L777.480647,152 L769,152.947796 Z" id="Fill-172" fill="#D7F7FB"></path>
                <path d="M799.112773,104 C799.112773,104 839.14264,167.966534 815.563342,179.361928 C791.475756,191.002505 781.737569,161.815361 771,136.851466 L788.453689,132.705722 C788.453689,132.705722 803.374911,166.786081 806.006793,164.641294 C809.709816,161.624581 782.49103,111.917381 782.49103,111.917381 L799.112773,104 Z" id="Fill-173" fill="#FF8583"></path>
                <path d="M206.207196,326.234899 L206.683647,329.181103 C206.725364,329.297878 206.810993,329.382014 206.914187,329.408125 L212.689417,330.428634 C213.086093,330.510594 213.109513,331.06328 212.720887,331.177153 L207.308668,332.495039 C207.189373,332.537833 207.100816,332.66041 207.082519,332.809098 L207.530427,335.669716 C207.492369,335.9243 207.21938,336.071537 206.983716,335.964917 L202.329719,333.809299 C202.275561,333.780287 202.215547,333.769407 202.156997,333.778111 L196.11756,334.498342 C195.763333,334.541861 195.540843,334.12916 195.775043,333.861521 L198.66156,331.606536 C198.779392,331.442616 198.762558,331.19311 198.62277,331.055301 L195.142702,328.969313 C194.85288,328.732862 195.035849,328.266489 195.410569,328.285347 L201.561982,328.583449 C201.626387,328.587075 201.689328,328.568217 201.744219,328.529051 L205.648043,326.055022 C205.850772,325.934621 206.114248,326.019482 206.207196,326.234899" id="Fill-174" fill="#4418B1"></path>
            </g>
        </g>
    </g>
</svg>