<?xml version="1.0" encoding="UTF-8" standalone="no"?>
<svg width="497px" height="100px" viewBox="0 0 497 100" version="1.1" xmlns="http://www.w3.org/2000/svg" xmlns:xlink="http://www.w3.org/1999/xlink">
    <!-- Generator: Sketch 47.1 (45422) - http://www.bohemiancoding.com/sketch -->
    <title>Title-Email</title>
    <desc>Created with Sketch.</desc>
    <defs></defs>
    <g id="Page-1" stroke="none" stroke-width="1" fill="none" fill-rule="evenodd">
        <g id="Email" transform="translate(-394.000000, -208.000000)" fill="#EF476F">
            <g id="Title-Email" transform="translate(394.000000, 208.000000)">
                <path d="M24.2,60.924 C23.2879954,60.9480001 22.3640047,60.9839998 21.428,61.032 C20.4919953,61.0800002 19.2080082,61.104 17.576,61.104 C15.9439918,61.104 13.4960163,61.0560005 10.232,60.96 C9.46399616,61.0080002 8.69600384,61.032 7.928,61.032 C7.15999616,61.032 6.44000336,60.8880014 5.768,60.6 C4.27999256,59.9759969 3.27200264,58.5360113 2.744,56.28 C2.5039988,55.2239947 2.22800156,54.4800022 1.916,54.048 C1.60399844,53.6159978 1.35200096,53.2080019 1.16,52.824 C0.6799976,52.0559962 0.71599724,50.7840089 1.268,49.008 C1.82000276,47.2319911 2.52799568,45.0360131 3.392,42.42 C4.25600432,39.8039869 5.23999448,37.0320146 6.344,34.104 C8.93601296,27.1439652 11.2639897,21.6240204 13.328,17.544 C14.1440041,15.7199909 14.851997,14.1360067 15.452,12.792 C16.052003,11.4479933 16.5919976,10.2840049 17.072,9.3 C17.5520024,8.31599508 17.792,7.80000024 17.792,7.752 C18.2720024,5.92799088 20.1199839,4.39200624 23.336,3.144 C26.4560156,1.84799352 29.2879873,1.51199688 31.832,2.136 C34.6640142,2.8560036 35.9120017,4.72798488 35.576,7.752 C34.9039966,10.7280149 33.9080066,13.7039851 32.588,16.68 C31.2679934,19.6560149 29.7680084,22.7759837 28.088,26.04 C26.4079916,29.3040163 24.5840098,32.7599818 22.616,36.408 C20.6479902,40.0560182 18.7040096,44.0159786 16.784,48.288 C16.7359998,48.480001 16.8319988,48.6479993 17.072,48.792 C17.6960031,48.7439998 18.5719944,48.5520017 19.7,48.216 C20.8280056,47.8799983 22.0039939,47.5800013 23.228,47.316 C24.4520061,47.0519987 25.663994,46.92 26.864,46.92 C28.064006,46.92 29.0719959,47.2319969 29.888,47.856 C29.8399998,48.7200043 30.0559976,49.4039975 30.536,49.908 C31.0160024,50.4120025 31.4959976,50.9039976 31.976,51.384 C33.176006,52.6320062 33.272005,54.2879897 32.264,56.352 C31.3039952,58.3680101 29.5760125,59.7359964 27.08,60.456 C26.071995,60.7440014 25.1120046,60.8999999 24.2,60.924 Z M66.176,8.328 C64.4959916,13.5600262 62.9480071,18.2879789 61.532,22.512 C60.1159929,26.7360211 58.8200059,30.6239822 57.644,34.176 C56.4679941,37.7280178 55.376005,41.003985 54.368,44.004 C53.359995,47.004015 52.4240043,49.8719863 51.56,52.608 C51.0799976,55.7760158 49.5200132,58.0079935 46.88,59.304 C45.3439923,60.0240036 43.5200106,60.384 41.408,60.384 C39.2959894,60.384 37.7120053,60.1560023 36.656,59.7 C35.5999947,59.2439977 34.9160016,58.5840043 34.604,57.72 C34.2919984,56.8559957 34.2919984,55.8120061 34.604,54.588 C34.9160016,53.3639939 35.4559962,51.6840107 36.224,49.548 C36.9920038,47.4119893 37.9639941,44.5200182 39.14,40.872 C40.3160059,37.2239818 41.5519935,33.5280187 42.848,29.784 C46.0640161,20.4239532 48.6079906,13.944018 50.48,10.344 C51.2000036,8.99999328 51.9199964,8.10000228 52.64,7.644 C53.3600036,7.18799772 54.0559966,6.85200108 54.728,6.636 C55.4000034,6.41999892 56.0239971,6.16800144 56.6,5.88 C57.1760029,5.59199856 57.6919977,4.87200576 58.148,3.72 C58.6040023,2.56799424 59.4439939,1.77600216 60.668,1.344 C61.8920061,0.91199784 63.0439946,0.8759982 64.124,1.236 C65.2040054,1.5960018 66.0199972,2.36399412 66.572,3.54 C67.1240028,4.71600588 66.9920041,6.31198992 66.176,8.328 Z M67.832,54.624 L67.328,8.112 C67.328,6.95999424 67.7959953,5.9640042 68.732,5.124 C69.6680047,4.2839958 70.735994,3.69600168 71.936,3.36 C73.136006,3.02399832 74.2639947,2.9759988 75.32,3.216 C76.3760053,3.4560012 77.0479986,4.07999496 77.336,5.088 C78.2480046,6.91200912 78.8719983,9.43198392 79.208,12.648 C79.8320031,18.64803 80.144,23.8319782 80.144,28.2 C80.6240024,28.9680038 81.2239964,29.3280002 81.944,29.28 C84.0080103,24.2399748 86.2879875,19.3920233 88.784,14.736 C91.2800125,10.0799767 92.8879964,7.0920066 93.608,5.772 C94.3280036,4.4519934 95.191995,3.52800264 96.2,3 C97.208005,2.47199736 98.2879942,2.13600072 99.44,1.992 C101.936012,1.70399856 104.287989,2.13599424 106.496,3.288 C108.176008,3.86400288 109.159999,4.84799304 109.448,6.24 C110.552006,8.44801104 109.808013,10.9919856 107.216,13.872 C104.191985,18.672024 101.144015,23.975971 98.072,29.784 C92.2159707,40.9680559 88.4960079,47.855987 86.912,50.448 C85.3279921,53.040013 84.1760036,54.8759946 83.456,55.956 C82.7359964,57.0360054 81.9200046,57.9359964 81.008,58.656 C79.3759918,59.9520065 77.4080115,60.4800012 75.104,60.24 C71.0719798,60.0959993 68.7200034,58.824012 68.048,56.424 C67.9039993,55.7519966 67.832,55.1520026 67.832,54.624 Z M115.496,47.928 C118.280014,48.2160014 120.355993,48.36 121.724,48.36 C123.092007,48.36 125.167986,48.1680019 127.952,47.784 C128.816004,48.0720014 129.319999,48.4319978 129.464,48.864 C129.608001,49.2960022 129.656,49.7399977 129.608,50.196 C129.56,50.6520023 129.584,51.0959978 129.68,51.528 C129.776,51.9600022 130.231996,52.3199986 131.048,52.608 C131.480002,52.7520007 131.612001,53.1719965 131.444,53.868 C131.275999,54.5640035 130.880003,55.3199959 130.256,56.136 C128.671992,58.2000103 126.800011,59.6399959 124.64,60.456 C121.183983,61.3200043 118.47201,61.8239993 116.504,61.968 C113.239984,62.2080012 109.688019,62.0880024 105.848,61.608 C101.623979,60.8399962 99.5839993,59.0880137 99.728,56.352 C99.728,46.2719496 101.935978,36.1440509 106.352,25.968 C107.792007,22.6559834 109.423991,19.1760182 111.248,15.528 C111.632002,14.7599962 111.86,13.8960048 111.932,12.936 C112.004,11.9759952 112.064,11.0400046 112.112,10.128 C112.16,9.21599544 112.303999,8.4000036 112.544,7.68 C112.784001,6.9599964 113.287996,6.45600144 114.056,6.168 C124.04005,2.18398008 131.935971,0.64799544 137.744,1.56 C139.76001,1.60800024 141.091997,2.2919934 141.74,3.612 C142.388003,4.9320066 142.460003,6.40799184 141.956,8.04 C141.451997,9.67200816 140.468007,11.2079928 139.004,12.648 C137.539993,14.0880072 135.704011,14.9759983 133.496,15.312 C130.663986,16.1280041 128.936003,16.6799986 128.312,16.968 C127.111994,17.5440029 126.248003,18.3119952 125.72,19.272 C125.047997,20.3280053 124.424003,21.3359952 123.848,22.296 C123.271997,23.2560048 122.864001,24.2879945 122.624,25.392 L122.336,26.976 C123.248005,27.4080022 124.363993,27.5400008 125.684,27.372 C127.004007,27.2039992 128.227994,27.0360008 129.356,26.868 C130.484006,26.6999992 131.395997,26.6879993 132.092,26.832 C132.788003,26.9760007 132.932002,27.6839936 132.524,28.956 C132.115998,30.2280064 131.372005,31.6559921 130.292,33.24 C129.211995,34.8240079 127.68801,35.9759964 125.72,36.696 C124.471994,36.9360012 123.620002,37.1159994 123.164,37.236 C122.707998,37.3560006 122.360001,37.4399998 122.12,37.488 C121.783998,37.5360002 120.824008,37.6079995 119.24,37.704 C116.983989,41.5440192 115.616002,44.5199894 115.136,46.632 C114.943999,47.4960043 115.063998,47.928 115.496,47.928 Z M172.016,57.216 C171.583998,59.1360096 170.096013,60.3119978 167.552,60.744 C165.199988,61.1760022 162.968011,60.9120048 160.856,59.952 C158.503988,58.943995 157.471999,57.5280091 157.76,55.704 C157.471999,52.9199861 158.935984,46.8720466 162.152,37.56 C166.952024,23.5919302 171.751976,13.60803 176.552,7.608 C177.800006,6.07199232 178.867996,5.07600228 179.756,4.62 C180.644004,4.16399772 181.663994,3.74400192 182.816,3.36 C183.968006,2.97599808 185.167994,2.61600168 186.416,2.28 C188.912012,1.60799664 191.275989,1.14000132 193.508,0.876 C195.740011,0.61199868 197.743991,0.87599604 199.52,1.668 C201.296009,2.46000396 202.675995,3.62399232 203.66,5.16 C204.644005,6.69600768 205.255999,8.50798956 205.496,10.596 C205.736001,12.6840104 205.664002,14.8679886 205.28,17.148 C204.895998,19.4280114 204.200005,21.7319884 203.192,24.06 C202.183995,26.3880116 200.912008,28.5599899 199.376,30.576 C196.015983,34.9920221 192.080023,37.8479935 187.568,39.144 L188.288,40.368 C188.912003,41.3280048 189.667996,42.3839942 190.556,43.536 C191.444004,44.6880058 192.331996,45.863994 193.22,47.064 C194.108004,48.264006 194.911996,49.463994 195.632,50.664 C196.352004,51.864006 196.879998,52.9919947 197.216,54.048 C197.984004,56.4000118 197.38401,58.1039947 195.416,59.16 C193.831992,60.1200048 192.584005,60.3600024 191.672,59.88 C191.287998,59.6399988 190.904002,59.3400018 190.52,58.98 C190.135998,58.6199982 189.608003,58.3200012 188.936,58.08 C186.103986,58.8960041 183.944007,58.1760113 182.456,55.92 C181.543995,54.4799928 180.848002,53.160006 180.368,51.96 C179.887998,50.759994 179.480002,49.7520041 179.144,48.936 C178.279996,47.1599911 177.296006,45.6240065 176.192,44.328 C175.663997,45.6240065 175.064003,47.2799899 174.392,49.296 C173.575996,51.8400127 172.664005,54.4799863 171.656,57.216 L172.016,57.216 Z M186.56,15.312 C185.647995,17.3760103 185.024002,18.8159959 184.688,19.632 C184.015997,21.2640082 183.272004,23.0639902 182.456,25.032 C182.311999,26.0880053 182.192,26.8319978 182.096,27.264 L183.104,26.256 L184.328,25.68 C185.192004,25.1999976 185.983996,24.7680019 186.704,24.384 C187.424004,23.9999981 188.071997,23.5200029 188.648,22.944 C189.752006,21.8399945 190.711996,20.0400125 191.528,17.544 C191.528,17.0639976 191.611999,16.5840024 191.78,16.104 C191.948001,15.6239976 192.056,15.1440024 192.104,14.664 C192.296001,13.6079947 191.864005,12.8640022 190.808,12.432 C189.847995,12.3359995 188.648007,13.1279916 187.208,14.808 C186.919999,15.1440017 186.704001,15.312 186.56,15.312 Z M217.592,47.928 C220.376014,48.2160014 222.451993,48.36 223.82,48.36 C225.188007,48.36 227.263986,48.1680019 230.048,47.784 C230.912004,48.0720014 231.415999,48.4319978 231.56,48.864 C231.704001,49.2960022 231.752,49.7399977 231.704,50.196 C231.656,50.6520023 231.68,51.0959978 231.776,51.528 C231.872,51.9600022 232.327996,52.3199986 233.144,52.608 C233.576002,52.7520007 233.708001,53.1719965 233.54,53.868 C233.371999,54.5640035 232.976003,55.3199959 232.352,56.136 C230.767992,58.2000103 228.896011,59.6399959 226.736,60.456 C223.279983,61.3200043 220.56801,61.8239993 218.6,61.968 C215.335984,62.2080012 211.784019,62.0880024 207.944,61.608 C203.719979,60.8399962 201.679999,59.0880137 201.824,56.352 C201.824,46.2719496 204.031978,36.1440509 208.448,25.968 C209.888007,22.6559834 211.519991,19.1760182 213.344,15.528 C213.728002,14.7599962 213.956,13.8960048 214.028,12.936 C214.1,11.9759952 214.16,11.0400046 214.208,10.128 C214.256,9.21599544 214.399999,8.4000036 214.64,7.68 C214.880001,6.9599964 215.383996,6.45600144 216.152,6.168 C226.13605,2.18398008 234.031971,0.64799544 239.84,1.56 C241.85601,1.60800024 243.187997,2.2919934 243.836,3.612 C244.484003,4.9320066 244.556003,6.40799184 244.052,8.04 C243.547997,9.67200816 242.564007,11.2079928 241.1,12.648 C239.635993,14.0880072 237.800011,14.9759983 235.592,15.312 C232.759986,16.1280041 231.032003,16.6799986 230.408,16.968 C229.207994,17.5440029 228.344003,18.3119952 227.816,19.272 C227.143997,20.3280053 226.520003,21.3359952 225.944,22.296 C225.367997,23.2560048 224.960001,24.2879945 224.72,25.392 L224.432,26.976 C225.344005,27.4080022 226.459993,27.5400008 227.78,27.372 C229.100007,27.2039992 230.323994,27.0360008 231.452,26.868 C232.580006,26.6999992 233.491997,26.6879993 234.188,26.832 C234.884003,26.9760007 235.028002,27.6839936 234.62,28.956 C234.211998,30.2280064 233.468005,31.6559921 232.388,33.24 C231.307995,34.8240079 229.78401,35.9759964 227.816,36.696 C226.567994,36.9360012 225.716002,37.1159994 225.26,37.236 C224.803998,37.3560006 224.456001,37.4399998 224.216,37.488 C223.879998,37.5360002 222.920008,37.6079995 221.336,37.704 C219.079989,41.5440192 217.712002,44.5199894 217.232,46.632 C217.039999,47.4960043 217.159998,47.928 217.592,47.928 Z M243.944,29.064 C244.904005,25.8479839 245.683997,23.3640088 246.284,21.612 C246.884003,19.8599912 247.471997,18.288007 248.048,16.896 C248.624003,15.503993 249.283996,14.1600065 250.028,12.864 C250.772004,11.5679935 251.587996,10.3800054 252.476,9.3 C253.364004,8.2199946 254.311995,7.36800312 255.32,6.744 C256.328005,6.11999688 257.383994,5.808 258.488,5.808 C259.592006,5.808 260.743994,6.23999568 261.944,7.104 C263.86401,11.904024 265.039998,15.1199918 265.472,16.752 C266.048003,19.152012 266.575998,22.5359782 267.056,26.904 C267.488002,25.7999945 267.979997,24.6360061 268.532,23.412 C269.084003,22.1879939 269.623997,20.9520062 270.152,19.704 C271.640007,16.5359842 272.575998,14.1360082 272.96,12.504 C274.016005,9.1439832 276.199983,6.6240084 279.512,4.944 C282.392014,3.5039928 285.079988,3.04799736 287.576,3.576 C288.584005,3.76800096 289.291998,4.17599688 289.7,4.8 C290.108002,5.42400312 290.108002,6.07199664 289.7,6.744 C289.291998,7.41600336 289.147999,8.051997 289.268,8.652 C289.388001,9.252003 289.496,9.95999592 289.592,10.776 C289.736001,12.984011 289.352005,14.9399915 288.44,16.644 C287.527995,18.3480085 286.592005,20.4599874 285.632,22.98 C284.671995,25.5000126 283.700005,28.1759858 282.716,31.008 C281.731995,33.8400142 280.736005,36.7199854 279.728,39.648 C278.719995,42.5760146 277.736005,45.239988 276.776,47.64 C274.663989,53.1600276 272.936007,56.2079971 271.592,56.784 C269.767991,57.8880055 268.424004,58.535999 267.56,58.728 C266.455994,58.920001 264.89601,58.920001 262.88,58.728 C261.631994,58.6319995 260.552005,57.0240156 259.64,53.904 C259.111997,52.2239916 258.632002,49.8960149 258.2,46.92 C257.431996,41.7359741 256.904001,38.8800026 256.616,38.352 C254.69599,44.5920312 253.340004,48.5279918 252.548,50.16 C251.755996,51.7920082 251.156002,52.8719974 250.748,53.4 C250.339998,53.9280026 249.848003,54.6239957 249.272,55.488 C248.647997,57.2160086 247.160012,58.4879959 244.808,59.304 C242.79199,60.0720038 240.968008,60.1920026 239.336,59.664 C237.559991,59.0879971 237.031996,57.9840082 237.752,56.352 C238.280003,50.5919712 240.343982,41.4960622 243.944,29.064 Z M305.504,49.368 C304.159993,52.8240173 303.044004,55.451991 302.156,57.252 C301.267996,59.052009 300.488003,60.2879966 299.816,60.96 C299.143997,61.6320034 298.460003,62.0879988 297.764,62.328 C297.067997,62.5680012 296.372003,62.6640002 295.676,62.616 C294.979997,62.5679998 294.272004,62.5200002 293.552,62.472 C289.51998,61.8479969 288.271992,58.9440259 289.808,53.76 C290.816005,49.6319794 291.631997,46.2600131 292.256,43.644 C292.880003,41.0279869 293.395998,38.8680085 293.804,37.164 C294.212002,35.4599915 294.559999,34.0440056 294.848,32.916 C295.136001,31.7879944 295.447998,30.6720055 295.784,29.568 C296.120002,28.4639945 296.539997,27.216007 297.044,25.824 C297.548003,24.431993 298.207996,22.5840115 299.024,20.28 C297.199991,20.5200012 295.568007,20.3280031 294.128,19.704 C292.015989,18.7919954 291.151998,16.8240151 291.536,13.8 C291.728001,12.407993 292.471994,11.112006 293.768,9.912 C294.440003,9.28799688 295.231995,8.6160036 296.144,7.896 C298.016009,6.40799256 301.735972,4.8240084 307.304,3.144 C313.064029,1.41599136 318.007979,0.59999952 322.136,0.696 C323.240006,0.50399904 324.379994,0.63599772 325.556,1.092 C326.732006,1.54800228 327.679996,2.15999616 328.4,2.928 C329.120004,3.69600384 329.492,4.53599544 329.516,5.448 C329.54,6.36000456 328.952006,7.1759964 327.752,7.896 C327.175997,8.28000192 326.768001,8.91599556 326.528,9.804 C326.287999,10.6920044 326.024001,11.6279951 325.736,12.612 C325.447999,13.5960049 325.028003,14.4959959 324.476,15.312 C323.923997,16.1280041 323.048006,16.6079993 321.848,16.752 C321.223997,17.0880017 320.348006,17.3279993 319.22,17.472 C318.091994,17.6160007 317.348002,17.7239996 316.988,17.796 C316.627998,17.8680004 316.424,17.999999 316.376,18.192 C315.511996,20.7360127 314.480006,23.8199819 313.28,27.444 C312.079994,31.0680181 310.820007,34.7639812 309.5,38.532 C308.179993,42.3000188 306.848007,45.9119827 305.504,49.368 Z M299.744,19.488 C299.648,19.488 299.6,19.4999999 299.6,19.524 C299.6,19.5480001 299.648,19.56 299.744,19.56 L299.744,19.488 Z M353.672,56.352 C353.047997,58.6080113 351.464013,60.1199962 348.92,60.888 C346.615988,61.5600034 344.552009,61.3200058 342.728,60.168 C340.75999,58.967994 340.135996,57.1920118 340.856,54.84 C341.480003,52.1519866 342.679991,47.8560295 344.456,41.952 C346.232009,36.0479705 347.479996,31.896012 348.2,29.496 C349.880008,23.5439702 350.935998,19.6080096 351.368,17.688 C352.856007,12.887976 353.923997,9.91200576 354.572,8.76 C355.220003,7.60799424 355.783998,6.80400228 356.264,6.348 C356.744002,5.89199772 357.523995,5.35200312 358.604,4.728 C359.684005,4.10399688 360.847994,3.62400168 362.096,3.288 C363.344006,2.95199832 364.591994,2.7240006 365.84,2.604 C367.088006,2.4839994 368.359994,2.38800036 369.656,2.316 C370.952006,2.24399964 372.391992,2.01600192 373.976,1.632 C374.600003,1.632 375.163997,1.58400048 375.668,1.488 C376.172003,1.39199952 376.663998,1.32000024 377.144,1.272 C378.248006,1.17599952 379.339995,1.29599832 380.42,1.632 C381.500005,1.96800168 382.315997,2.56799568 382.868,3.432 C383.420003,4.29600432 383.696,5.27999448 383.696,6.384 C383.696,7.48800552 383.468002,8.66399376 383.012,9.912 C382.555998,11.1600062 381.920004,12.3599942 381.104,13.512 C379.327991,16.0080125 377.096013,17.7839947 374.408,18.84 C372.535991,19.4160029 371.192004,19.704 370.376,19.704 C369.559996,19.704 368.996002,19.608001 368.684,19.416 C368.371998,19.223999 368.192,19.0800005 368.144,18.984 C368.096,18.8879995 367.928001,19.0559978 367.64,19.488 C367.207998,20.1120031 366.896001,20.8079962 366.704,21.576 C366.511999,22.3440038 366.296001,22.9079982 366.056,23.268 C365.815999,23.6280018 365.492002,24.3359947 365.084,25.392 C364.675998,26.4480053 364.160003,27.3239965 363.536,28.02 C362.911997,28.7160035 362.552,29.1359993 362.456,29.28 L368.792,28.632 C369.800005,28.5359995 370.675996,28.7399975 371.42,29.244 C372.164004,29.7480025 372.691998,30.3599964 373.004,31.08 C373.316002,31.8000036 373.400001,32.5079965 373.256,33.204 C373.111999,33.9000035 372.680004,34.4279982 371.96,34.788 C371.239996,35.1480018 370.772001,35.5079982 370.556,35.868 C370.339999,36.2280018 370.160001,36.5759983 370.016,36.912 C369.871999,37.2480017 369.692001,37.5839983 369.476,37.92 C369.259999,38.2560017 368.792004,38.5679986 368.072,38.856 C366.535992,39.5760036 363.584022,40.1519978 359.216,40.584 C358.975999,41.3040036 358.652002,42.1559951 358.244,43.14 C357.835998,44.1240049 357.416002,45.1439947 356.984,46.2 C355.735994,49.4160161 355.028001,51.3599966 354.86,52.032 C354.691999,52.7040034 354.56,53.2559978 354.464,53.688 C354.175999,54.9840065 353.912001,55.8719976 353.672,56.352 Z M386.144,57.216 C385.711998,59.1360096 384.224013,60.3119978 381.68,60.744 C379.327988,61.1760022 377.096011,60.9120048 374.984,59.952 C372.631988,58.943995 371.599999,57.5280091 371.888,55.704 C371.599999,52.9199861 373.063984,46.8720466 376.28,37.56 C381.080024,23.5919302 385.879976,13.60803 390.68,7.608 C391.928006,6.07199232 392.995996,5.07600228 393.884,4.62 C394.772004,4.16399772 395.791994,3.74400192 396.944,3.36 C398.096006,2.97599808 399.295994,2.61600168 400.544,2.28 C403.040012,1.60799664 405.403989,1.14000132 407.636,0.876 C409.868011,0.61199868 411.871991,0.87599604 413.648,1.668 C415.424009,2.46000396 416.803995,3.62399232 417.788,5.16 C418.772005,6.69600768 419.383999,8.50798956 419.624,10.596 C419.864001,12.6840104 419.792002,14.8679886 419.408,17.148 C419.023998,19.4280114 418.328005,21.7319884 417.32,24.06 C416.311995,26.3880116 415.040008,28.5599899 413.504,30.576 C410.143983,34.9920221 406.208023,37.8479935 401.696,39.144 L402.416,40.368 C403.040003,41.3280048 403.795996,42.3839942 404.684,43.536 C405.572004,44.6880058 406.459996,45.863994 407.348,47.064 C408.236004,48.264006 409.039996,49.463994 409.76,50.664 C410.480004,51.864006 411.007998,52.9919947 411.344,54.048 C412.112004,56.4000118 411.51201,58.1039947 409.544,59.16 C407.959992,60.1200048 406.712005,60.3600024 405.8,59.88 C405.415998,59.6399988 405.032002,59.3400018 404.648,58.98 C404.263998,58.6199982 403.736003,58.3200012 403.064,58.08 C400.231986,58.8960041 398.072007,58.1760113 396.584,55.92 C395.671995,54.4799928 394.976002,53.160006 394.496,51.96 C394.015998,50.759994 393.608002,49.7520041 393.272,48.936 C392.407996,47.1599911 391.424006,45.6240065 390.32,44.328 C389.791997,45.6240065 389.192003,47.2799899 388.52,49.296 C387.703996,51.8400127 386.792005,54.4799863 385.784,57.216 L386.144,57.216 Z M400.688,15.312 C399.775995,17.3760103 399.152002,18.8159959 398.816,19.632 C398.143997,21.2640082 397.400004,23.0639902 396.584,25.032 C396.439999,26.0880053 396.32,26.8319978 396.224,27.264 L397.232,26.256 L398.456,25.68 C399.320004,25.1999976 400.111996,24.7680019 400.832,24.384 C401.552004,23.9999981 402.199997,23.5200029 402.776,22.944 C403.880006,21.8399945 404.839996,20.0400125 405.656,17.544 C405.656,17.0639976 405.739999,16.5840024 405.908,16.104 C406.076001,15.6239976 406.184,15.1440024 406.232,14.664 C406.424001,13.6079947 405.992005,12.8640022 404.936,12.432 C403.975995,12.3359995 402.776007,13.1279916 401.336,14.808 C401.047999,15.1440017 400.832001,15.312 400.688,15.312 Z M431.72,47.928 C434.504014,48.2160014 436.579993,48.36 437.948,48.36 C439.316007,48.36 441.391986,48.1680019 444.176,47.784 C445.040004,48.0720014 445.543999,48.4319978 445.688,48.864 C445.832001,49.2960022 445.88,49.7399977 445.832,50.196 C445.784,50.6520023 445.808,51.0959978 445.904,51.528 C446,51.9600022 446.455996,52.3199986 447.272,52.608 C447.704002,52.7520007 447.836001,53.1719965 447.668,53.868 C447.499999,54.5640035 447.104003,55.3199959 446.48,56.136 C444.895992,58.2000103 443.024011,59.6399959 440.864,60.456 C437.407983,61.3200043 434.69601,61.8239993 432.728,61.968 C429.463984,62.2080012 425.912019,62.0880024 422.072,61.608 C417.847979,60.8399962 415.807999,59.0880137 415.952,56.352 C415.952,46.2719496 418.159978,36.1440509 422.576,25.968 C424.016007,22.6559834 425.647991,19.1760182 427.472,15.528 C427.856002,14.7599962 428.084,13.8960048 428.156,12.936 C428.228,11.9759952 428.288,11.0400046 428.336,10.128 C428.384,9.21599544 428.527999,8.4000036 428.768,7.68 C429.008001,6.9599964 429.511996,6.45600144 430.28,6.168 C440.26405,2.18398008 448.159971,0.64799544 453.968,1.56 C455.98401,1.60800024 457.315997,2.2919934 457.964,3.612 C458.612003,4.9320066 458.684003,6.40799184 458.18,8.04 C457.675997,9.67200816 456.692007,11.2079928 455.228,12.648 C453.763993,14.0880072 451.928011,14.9759983 449.72,15.312 C446.887986,16.1280041 445.160003,16.6799986 444.536,16.968 C443.335994,17.5440029 442.472003,18.3119952 441.944,19.272 C441.271997,20.3280053 440.648003,21.3359952 440.072,22.296 C439.495997,23.2560048 439.088001,24.2879945 438.848,25.392 L438.56,26.976 C439.472005,27.4080022 440.587993,27.5400008 441.908,27.372 C443.228007,27.2039992 444.451994,27.0360008 445.58,26.868 C446.708006,26.6999992 447.619997,26.6879993 448.316,26.832 C449.012003,26.9760007 449.156002,27.6839936 448.748,28.956 C448.339998,30.2280064 447.596005,31.6559921 446.516,33.24 C445.435995,34.8240079 443.91201,35.9759964 441.944,36.696 C440.695994,36.9360012 439.844002,37.1159994 439.388,37.236 C438.931998,37.3560006 438.584001,37.4399998 438.344,37.488 C438.007998,37.5360002 437.048008,37.6079995 435.464,37.704 C433.207989,41.5440192 431.840002,44.5199894 431.36,46.632 C431.167999,47.4960043 431.287998,47.928 431.72,47.928 Z M469.448,47.928 C472.232014,48.2160014 474.307993,48.36 475.676,48.36 C477.044007,48.36 479.119986,48.1680019 481.904,47.784 C482.768004,48.0720014 483.271999,48.4319978 483.416,48.864 C483.560001,49.2960022 483.608,49.7399977 483.56,50.196 C483.512,50.6520023 483.536,51.0959978 483.632,51.528 C483.728,51.9600022 484.183996,52.3199986 485,52.608 C485.432002,52.7520007 485.564001,53.1719965 485.396,53.868 C485.227999,54.5640035 484.832003,55.3199959 484.208,56.136 C482.623992,58.2000103 480.752011,59.6399959 478.592,60.456 C475.135983,61.3200043 472.42401,61.8239993 470.456,61.968 C467.191984,62.2080012 463.640019,62.0880024 459.8,61.608 C455.575979,60.8399962 453.535999,59.0880137 453.68,56.352 C453.68,46.2719496 455.887978,36.1440509 460.304,25.968 C461.744007,22.6559834 463.375991,19.1760182 465.2,15.528 C465.584002,14.7599962 465.812,13.8960048 465.884,12.936 C465.956,11.9759952 466.016,11.0400046 466.064,10.128 C466.112,9.21599544 466.255999,8.4000036 466.496,7.68 C466.736001,6.9599964 467.239996,6.45600144 468.008,6.168 C477.99205,2.18398008 485.887971,0.64799544 491.696,1.56 C493.71201,1.60800024 495.043997,2.2919934 495.692,3.612 C496.340003,4.9320066 496.412003,6.40799184 495.908,8.04 C495.403997,9.67200816 494.420007,11.2079928 492.956,12.648 C491.491993,14.0880072 489.656011,14.9759983 487.448,15.312 C484.615986,16.1280041 482.888003,16.6799986 482.264,16.968 C481.063994,17.5440029 480.200003,18.3119952 479.672,19.272 C478.999997,20.3280053 478.376003,21.3359952 477.8,22.296 C477.223997,23.2560048 476.816001,24.2879945 476.576,25.392 L476.288,26.976 C477.200005,27.4080022 478.315993,27.5400008 479.636,27.372 C480.956007,27.2039992 482.179994,27.0360008 483.308,26.868 C484.436006,26.6999992 485.347997,26.6879993 486.044,26.832 C486.740003,26.9760007 486.884002,27.6839936 486.476,28.956 C486.067998,30.2280064 485.324005,31.6559921 484.244,33.24 C483.163995,34.8240079 481.64001,35.9759964 479.672,36.696 C478.423994,36.9360012 477.572002,37.1159994 477.116,37.236 C476.659998,37.3560006 476.312001,37.4399998 476.072,37.488 C475.735998,37.5360002 474.776008,37.6079995 473.192,37.704 C470.935989,41.5440192 469.568002,44.5199894 469.088,46.632 C468.895999,47.4960043 469.015998,47.928 469.448,47.928 Z" id="LIVE-RENT-FREE"></path>
                <path d="M142.893,98.784 C142.682999,98.5679989 142.578,98.2860017 142.578,97.938 L142.578,87.408 C142.578,87.0599983 142.676999,86.790001 142.875,86.598 C143.073001,86.405999 143.345998,86.31 143.694,86.31 L150.012,86.31 C150.744004,86.31 151.11,86.6219969 151.11,87.246 C151.11,87.8580031 150.744004,88.164 150.012,88.164 L144.864,88.164 L144.864,91.62 L149.652,91.62 C150.384004,91.62 150.75,91.9319969 150.75,92.556 C150.75,93.1680031 150.384004,93.474 149.652,93.474 L144.864,93.474 L144.864,97.938 C144.864,98.2860017 144.762001,98.5679989 144.558,98.784 C144.353999,99.0000011 144.078002,99.108 143.73,99.108 C143.381998,99.108 143.103001,99.0000011 142.893,98.784 Z M162.525,98.37 C161.618995,97.8419974 160.920002,97.0860049 160.428,96.102 C159.935998,95.1179951 159.69,93.9660066 159.69,92.646 C159.69,91.3259934 159.932998,90.1770049 160.419,89.199 C160.905002,88.2209951 161.603995,87.4680026 162.516,86.94 C163.428005,86.4119974 164.501994,86.148 165.738,86.148 C166.974006,86.148 168.044995,86.4119974 168.951,86.94 C169.857005,87.4680026 170.552998,88.2209951 171.039,89.199 C171.525002,90.1770049 171.768,91.3259934 171.768,92.646 C171.768,93.9660066 171.522002,95.1179951 171.03,96.102 C170.537998,97.0860049 169.839005,97.8419974 168.933,98.37 C168.026995,98.8980026 166.962006,99.162 165.738,99.162 C164.501994,99.162 163.431005,98.8980026 162.525,98.37 Z M168.465,96.102 C169.119003,95.297996 169.446,94.1460075 169.446,92.646 C169.446,91.1459925 169.119003,89.997004 168.465,89.199 C167.810997,88.400996 166.902006,88.002 165.738,88.002 C164.561994,88.002 163.647003,88.400996 162.993,89.199 C162.338997,89.997004 162.012,91.1459925 162.012,92.646 C162.012,94.1460075 162.338997,95.297996 162.993,96.102 C163.647003,96.906004 164.561994,97.308 165.738,97.308 C166.902006,97.308 167.810997,96.906004 168.465,96.102 Z M191.976,98.172 C191.976,98.4480014 191.865001,98.6759991 191.643,98.856 C191.420999,99.0360009 191.160002,99.126 190.86,99.126 C190.667999,99.126 190.485001,99.0810005 190.311,98.991 C190.136999,98.9009995 189.990001,98.7660009 189.87,98.586 L187.476,94.95 C187.235999,94.5659981 186.981001,94.2960008 186.711,94.14 C186.440999,93.9839992 186.090002,93.906 185.658,93.906 L183.894,93.906 L183.894,97.938 C183.894,98.2980018 183.792001,98.582999 183.588,98.793 C183.383999,99.003001 183.108002,99.108 182.76,99.108 C182.411998,99.108 182.133001,99.003001 181.923,98.793 C181.712999,98.582999 181.608,98.2980018 181.608,97.938 L181.608,87.408 C181.608,87.0599983 181.706999,86.790001 181.905,86.598 C182.103001,86.405999 182.375998,86.31 182.724,86.31 L187.224,86.31 C188.664007,86.31 189.758996,86.6309968 190.509,87.273 C191.259004,87.9150032 191.634,88.8419939 191.634,90.054 C191.634,91.0380049 191.355003,91.8449969 190.797,92.475 C190.238997,93.1050032 189.450005,93.5099991 188.43,93.69 C188.778002,93.7740004 189.083999,93.9239989 189.348,94.14 C189.612001,94.3560011 189.869999,94.6559981 190.122,95.04 L191.76,97.542 C191.904001,97.7580011 191.976,97.967999 191.976,98.172 Z M188.826,91.629 C189.234002,91.2989984 189.438,90.7920034 189.438,90.108 C189.438,89.4119965 189.234002,88.9050016 188.826,88.587 C188.417998,88.2689984 187.776004,88.11 186.9,88.11 L183.876,88.11 L183.876,92.124 L186.9,92.124 C187.776004,92.124 188.417998,91.9590017 188.826,91.629 Z M225.606,98.082 C225.606,98.3580014 225.495001,98.591999 225.273,98.784 C225.050999,98.976001 224.796001,99.072 224.508,99.072 C224.315999,99.072 224.136001,99.0210005 223.968,98.919 C223.799999,98.8169995 223.668,98.6580011 223.572,98.442 L222.492,96.03 L216.156,96.03 L215.076,98.442 C214.98,98.6580011 214.848001,98.8169995 214.68,98.919 C214.511999,99.0210005 214.326001,99.072 214.122,99.072 C213.845999,99.072 213.594001,98.976001 213.366,98.784 C213.137999,98.591999 213.024,98.3580014 213.024,98.082 C213.024,97.9259992 213.06,97.7700008 213.132,97.614 L218.1,86.94 C218.208001,86.6999988 218.372999,86.5170006 218.595,86.391 C218.817001,86.2649994 219.053999,86.202 219.306,86.202 C219.558001,86.202 219.794999,86.2649994 220.017,86.391 C220.239001,86.5170006 220.403999,86.6999988 220.512,86.94 L225.498,97.614 C225.57,97.7700008 225.606,97.9259992 225.606,98.082 Z M216.948,94.23 L221.7,94.23 L219.324,88.884 L216.948,94.23 Z M259.308,86.535 C259.512001,86.745001 259.614,87.0239983 259.614,87.372 L259.614,98.028 C259.614,98.3640017 259.518001,98.627999 259.326,98.82 C259.133999,99.012001 258.882002,99.108 258.57,99.108 C258.257998,99.108 258.012001,99.012001 257.832,98.82 C257.651999,98.627999 257.562,98.3640017 257.562,98.028 L257.562,90.612 L254.502,96.408 C254.357999,96.6720013 254.202001,96.8669994 254.034,96.993 C253.865999,97.1190006 253.668001,97.182 253.44,97.182 C253.211999,97.182 253.014001,97.1220006 252.846,97.002 C252.677999,96.8819994 252.522001,96.6840014 252.378,96.408 L249.3,90.702 L249.3,98.028 C249.3,98.3520016 249.207001,98.612999 249.021,98.811 C248.834999,99.009001 248.586002,99.108 248.274,99.108 C247.961998,99.108 247.716001,99.012001 247.536,98.82 C247.355999,98.627999 247.266,98.3640017 247.266,98.028 L247.266,87.372 C247.266,87.0239983 247.364999,86.745001 247.563,86.535 C247.761001,86.3249989 248.027998,86.22 248.364,86.22 C248.832002,86.22 249.197999,86.4779974 249.462,86.994 L253.458,94.608 L257.436,86.994 C257.700001,86.4779974 258.053998,86.22 258.498,86.22 C258.834002,86.22 259.103999,86.3249989 259.308,86.535 Z M272.307,98.37 C271.400995,97.8419974 270.702002,97.0860049 270.21,96.102 C269.717998,95.1179951 269.472,93.9660066 269.472,92.646 C269.472,91.3259934 269.714998,90.1770049 270.201,89.199 C270.687002,88.2209951 271.385995,87.4680026 272.298,86.94 C273.210005,86.4119974 274.283994,86.148 275.52,86.148 C276.756006,86.148 277.826995,86.4119974 278.733,86.94 C279.639005,87.4680026 280.334998,88.2209951 280.821,89.199 C281.307002,90.1770049 281.55,91.3259934 281.55,92.646 C281.55,93.9660066 281.304002,95.1179951 280.812,96.102 C280.319998,97.0860049 279.621005,97.8419974 278.715,98.37 C277.808995,98.8980026 276.744006,99.162 275.52,99.162 C274.283994,99.162 273.213005,98.8980026 272.307,98.37 Z M278.247,96.102 C278.901003,95.297996 279.228,94.1460075 279.228,92.646 C279.228,91.1459925 278.901003,89.997004 278.247,89.199 C277.592997,88.400996 276.684006,88.002 275.52,88.002 C274.343994,88.002 273.429003,88.400996 272.775,89.199 C272.120997,89.997004 271.794,91.1459925 271.794,92.646 C271.794,94.1460075 272.120997,95.297996 272.775,96.102 C273.429003,96.906004 274.343994,97.308 275.52,97.308 C276.684006,97.308 277.592997,96.906004 278.247,96.102 Z M301.803,86.535 C302.001001,86.745001 302.1,87.0239983 302.1,87.372 L302.1,97.938 C302.1,98.2860017 301.998001,98.5679989 301.794,98.784 C301.589999,99.0000011 301.326002,99.108 301.002,99.108 C300.617998,99.108 300.324001,98.9700014 300.12,98.694 L293.55,90.144 L293.55,97.938 C293.55,98.2860017 293.454001,98.5679989 293.262,98.784 C293.069999,99.0000011 292.806002,99.108 292.47,99.108 C292.133998,99.108 291.870001,99.0000011 291.678,98.784 C291.485999,98.5679989 291.39,98.2860017 291.39,97.938 L291.39,87.372 C291.39,87.0239983 291.491999,86.745001 291.696,86.535 C291.900001,86.3249989 292.169998,86.22 292.506,86.22 C292.878002,86.22 293.165999,86.3579986 293.37,86.634 L299.922,95.148 L299.922,87.372 C299.922,87.0239983 300.020999,86.745001 300.219,86.535 C300.417001,86.3249989 300.677998,86.22 301.002,86.22 C301.338002,86.22 301.604999,86.3249989 301.803,86.535 Z M315.639,98.775 C315.428999,98.564999 315.324,98.2860017 315.324,97.938 L315.324,88.218 L312.048,88.218 C311.327996,88.218 310.968,87.9000032 310.968,87.264 C310.968,86.6279968 311.327996,86.31 312.048,86.31 L320.922,86.31 C321.642004,86.31 322.002,86.6279968 322.002,87.264 C322.002,87.9000032 321.642004,88.218 320.922,88.218 L317.646,88.218 L317.646,97.938 C317.646,98.2860017 317.541001,98.564999 317.331,98.775 C317.120999,98.985001 316.842002,99.09 316.494,99.09 C316.133998,99.09 315.849001,98.985001 315.639,98.775 Z M341.616,86.535 C341.820001,86.745001 341.922,87.0239983 341.922,87.372 L341.922,97.938 C341.922,98.2860017 341.817001,98.5679989 341.607,98.784 C341.396999,99.0000011 341.124002,99.108 340.788,99.108 C340.439998,99.108 340.164001,99.0000011 339.96,98.784 C339.755999,98.5679989 339.654,98.2860017 339.654,97.938 L339.654,93.492 L333.156,93.492 L333.156,97.938 C333.156,98.2860017 333.051001,98.5679989 332.841,98.784 C332.630999,99.0000011 332.352002,99.108 332.004,99.108 C331.667998,99.108 331.395001,99.0000011 331.185,98.784 C330.974999,98.5679989 330.87,98.2860017 330.87,97.938 L330.87,87.372 C330.87,87.0239983 330.971999,86.745001 331.176,86.535 C331.380001,86.3249989 331.655998,86.22 332.004,86.22 C332.352002,86.22 332.630999,86.3249989 332.841,86.535 C333.051001,86.745001 333.156,87.0239983 333.156,87.372 L333.156,91.62 L339.654,91.62 L339.654,87.372 C339.654,87.0239983 339.755999,86.745001 339.96,86.535 C340.164001,86.3249989 340.439998,86.22 340.788,86.22 C341.136002,86.22 341.411999,86.3249989 341.616,86.535 Z" id="FOR-A-MONTH"></path>
            </g>
        </g>
    </g>
</svg>